<svg xmlns="http://www.w3.org/2000/svg" xmlns:xlink="http://www.w3.org/1999/xlink" viewBox="0 0 853.76 1132.71"><defs><style>.cls-1{fill:url(#linear-gradient);}.cls-2{fill:url(#radial-gradient);}.cls-3{fill:#57b6dd;}.cls-4{fill:url(#linear-gradient-2);}.cls-5{fill:url(#linear-gradient-3);}.cls-6{fill:url(#linear-gradient-4);}.cls-7{fill:url(#linear-gradient-5);}.cls-8{fill:url(#linear-gradient-6);}.cls-9{fill:url(#radial-gradient-2);}.cls-10{fill:url(#radial-gradient-3);}.cls-11{fill:url(#linear-gradient-7);}.cls-12{fill:url(#radial-gradient-4);}.cls-13{fill:url(#radial-gradient-5);}.cls-14{fill:#c1b49a;}.cls-15{fill:url(#linear-gradient-8);}.cls-16{fill:url(#radial-gradient-6);}.cls-17{fill:url(#radial-gradient-7);}.cls-18{fill:url(#radial-gradient-8);}.cls-19{fill:url(#radial-gradient-9);}.cls-20{fill:url(#radial-gradient-10);}.cls-21{fill:url(#radial-gradient-11);}.cls-22{fill:url(#radial-gradient-12);}.cls-23{fill:url(#radial-gradient-13);}.cls-24{fill:url(#radial-gradient-14);}.cls-25{fill:url(#radial-gradient-15);}.cls-26{fill:url(#radial-gradient-16);}.cls-27{fill:url(#radial-gradient-17);}.cls-28{fill:url(#radial-gradient-18);}.cls-29{fill:url(#radial-gradient-19);}.cls-30{fill:url(#radial-gradient-20);}.cls-31{fill:url(#radial-gradient-21);}.cls-32{fill:url(#radial-gradient-22);}.cls-33{fill:url(#radial-gradient-23);}.cls-34{fill:url(#radial-gradient-24);}.cls-35{fill:url(#radial-gradient-25);}.cls-36{fill:url(#radial-gradient-26);}.cls-37{fill:url(#radial-gradient-27);}.cls-38{fill:url(#radial-gradient-28);}.cls-39{fill:url(#radial-gradient-29);}.cls-40{fill:url(#radial-gradient-30);}.cls-41{fill:url(#radial-gradient-31);}.cls-42{fill:url(#radial-gradient-32);}.cls-43{fill:url(#radial-gradient-33);}.cls-44{fill:url(#radial-gradient-34);}.cls-45{fill:url(#radial-gradient-35);}.cls-46{fill:url(#radial-gradient-36);}.cls-47{fill:url(#radial-gradient-37);}.cls-48{fill:url(#radial-gradient-38);}.cls-49{fill:url(#radial-gradient-39);}.cls-50{fill:url(#radial-gradient-40);}.cls-51{fill:url(#radial-gradient-41);}.cls-52{fill:url(#radial-gradient-42);}.cls-53{fill:url(#radial-gradient-43);}.cls-54{fill:url(#radial-gradient-44);}.cls-55{fill:url(#radial-gradient-45);}.cls-56{fill:url(#radial-gradient-46);}.cls-57{fill:url(#linear-gradient-9);}.cls-58{fill:url(#radial-gradient-47);}.cls-59{fill:url(#radial-gradient-48);}.cls-60{fill:url(#radial-gradient-49);}.cls-61{fill:url(#radial-gradient-50);}.cls-62{fill:url(#radial-gradient-51);}.cls-63{fill:url(#radial-gradient-52);}.cls-64{fill:url(#radial-gradient-53);}.cls-65{fill:url(#radial-gradient-54);}.cls-66{fill:url(#radial-gradient-55);}.cls-67{fill:url(#linear-gradient-10);}</style><linearGradient id="linear-gradient" x1="22.18" y1="554.41" x2="875.98" y2="554.41" gradientUnits="userSpaceOnUse"><stop offset="0" stop-color="#c58e33"/><stop offset="0.19" stop-color="#fff0c1"/><stop offset="0.47" stop-color="#dcb66c"/><stop offset="0.77" stop-color="#fff0c1"/><stop offset="0.97" stop-color="#b97f2b"/></linearGradient><radialGradient id="radial-gradient" cx="377" cy="656.67" r="893.77" gradientUnits="userSpaceOnUse"><stop offset="0" stop-color="#46a8f9"/><stop offset="1" stop-color="#056499"/></radialGradient><linearGradient id="linear-gradient-2" x1="56.26" y1="622.82" x2="795.15" y2="622.82" xlink:href="#linear-gradient"/><linearGradient id="linear-gradient-3" x1="-105.9" y1="622.82" x2="1020.59" y2="622.82" gradientUnits="userSpaceOnUse"><stop offset="0" stop-color="#e3dbb6"/><stop offset="0.26" stop-color="#fff5d6"/><stop offset="0.49" stop-color="#e2dab4"/><stop offset="0.73" stop-color="#fff5d6"/><stop offset="1" stop-color="#e0d8b2"/></linearGradient><linearGradient id="linear-gradient-4" x1="-95.11" y1="622.82" x2="1008.53" y2="622.82" xlink:href="#linear-gradient"/><linearGradient id="linear-gradient-5" x1="-73.56" y1="622.82" x2="984.4" y2="622.82" xlink:href="#linear-gradient-3"/><linearGradient id="linear-gradient-6" x1="425.7" y1="231.11" x2="425.7" y2="877.89" xlink:href="#linear-gradient-3"/><radialGradient id="radial-gradient-2" cx="110.88" cy="809.44" r="102.23" gradientUnits="userSpaceOnUse"><stop offset="0" stop-color="#ffd859"/><stop offset="1" stop-color="#b97f2b"/></radialGradient><radialGradient id="radial-gradient-3" cx="532.24" cy="1131" r="257.19" xlink:href="#radial-gradient-2"/><linearGradient id="linear-gradient-7" x1="-11.1" y1="975.17" x2="1020.1" y2="953" xlink:href="#linear-gradient"/><radialGradient id="radial-gradient-4" cx="-77.62" cy="953.59" r="1031.26" gradientUnits="userSpaceOnUse"><stop offset="0" stop-color="#c79134"/><stop offset="0.3" stop-color="#faf3dc"/><stop offset="0.54" stop-color="#ffd859"/><stop offset="0.84" stop-color="#fbeec5"/><stop offset="1" stop-color="#b97f2b"/></radialGradient><radialGradient id="radial-gradient-5" cx="426.6" cy="162.47" r="60.73" gradientUnits="userSpaceOnUse"><stop offset="0.18" stop-color="#f4e8d9"/><stop offset="1" stop-color="#e6c57b"/></radialGradient><linearGradient id="linear-gradient-8" x1="302.13" y1="72.13" x2="633.2" y2="68.26" xlink:href="#linear-gradient-3"/><radialGradient id="radial-gradient-6" cx="428.89" cy="15.28" r="15.16" gradientTransform="translate(-4.64 15.61) rotate(-0.59)" xlink:href="#radial-gradient-5"/><radialGradient id="radial-gradient-7" cx="428.88" cy="33.61" r="7.05" gradientTransform="translate(-4.64 15.61) rotate(-0.59)" xlink:href="#radial-gradient-5"/><radialGradient id="radial-gradient-8" cx="428.88" cy="44.18" r="7.05" gradientTransform="translate(-4.64 15.61) rotate(-0.59)" xlink:href="#radial-gradient-5"/><radialGradient id="radial-gradient-9" cx="510.33" cy="50.18" r="7.05" gradientTransform="translate(-4.64 15.61) rotate(-0.59)" xlink:href="#radial-gradient-5"/><radialGradient id="radial-gradient-10" cx="508.91" cy="61.82" r="7.05" gradientTransform="translate(-4.64 15.61) rotate(-0.59)" xlink:href="#radial-gradient-5"/><radialGradient id="radial-gradient-11" cx="506.09" cy="71.33" r="7.05" gradientTransform="translate(-4.64 15.61) rotate(-0.59)" xlink:href="#radial-gradient-5"/><radialGradient id="radial-gradient-12" cx="500.8" cy="79.8" r="7.05" gradientTransform="translate(-4.64 15.61) rotate(-0.59)" xlink:href="#radial-gradient-5"/><radialGradient id="radial-gradient-13" cx="523.02" cy="41.72" r="5.99" gradientTransform="translate(-4.64 15.61) rotate(-0.59)" xlink:href="#radial-gradient-5"/><radialGradient id="radial-gradient-14" cx="333.7" cy="39.95" r="5.99" gradientTransform="translate(-4.64 15.61) rotate(-0.59)" xlink:href="#radial-gradient-5"/><radialGradient id="radial-gradient-15" cx="324.53" cy="45.24" r="5.99" gradientTransform="translate(-4.64 15.61) rotate(-0.59)" xlink:href="#radial-gradient-5"/><radialGradient id="radial-gradient-16" cx="315.72" cy="51.59" r="5.99" gradientTransform="translate(-4.64 15.61) rotate(-0.59)" xlink:href="#radial-gradient-5"/><radialGradient id="radial-gradient-17" cx="308.31" cy="58.99" r="5.99" gradientTransform="translate(-4.64 15.61) rotate(-0.59)" xlink:href="#radial-gradient-5"/><radialGradient id="radial-gradient-18" cx="306.2" cy="71.33" r="5.99" gradientTransform="translate(-4.64 15.61) rotate(-0.59)" xlink:href="#radial-gradient-5"/><radialGradient id="radial-gradient-19" cx="306.55" cy="82.26" r="5.99" gradientTransform="translate(-4.64 15.61) rotate(-0.59)" xlink:href="#radial-gradient-5"/><radialGradient id="radial-gradient-20" cx="311.83" cy="91.42" r="5.99" gradientTransform="translate(-4.64 15.61) rotate(-0.59)" xlink:href="#radial-gradient-5"/><radialGradient id="radial-gradient-21" cx="533.95" cy="44.54" r="5.99" gradientTransform="translate(-4.64 15.61) rotate(-0.59)" xlink:href="#radial-gradient-5"/><radialGradient id="radial-gradient-22" cx="542.76" cy="51.59" r="5.99" gradientTransform="translate(-4.64 15.61) rotate(-0.59)" xlink:href="#radial-gradient-5"/><radialGradient id="radial-gradient-23" cx="548.75" cy="60.76" r="5.99" gradientTransform="translate(-4.64 15.61) rotate(-0.59)" xlink:href="#radial-gradient-5"/><radialGradient id="radial-gradient-24" cx="550.51" cy="70.98" r="5.99" gradientTransform="translate(-4.64 15.61) rotate(-0.59)" xlink:href="#radial-gradient-5"/><radialGradient id="radial-gradient-25" cx="550.51" cy="81.91" r="5.99" gradientTransform="translate(-4.64 15.61) rotate(-0.59)" xlink:href="#radial-gradient-5"/><radialGradient id="radial-gradient-26" cx="545.22" cy="91.43" r="5.99" gradientTransform="translate(-4.64 15.61) rotate(-0.59)" xlink:href="#radial-gradient-5"/><radialGradient id="radial-gradient-27" cx="507.15" cy="38.2" r="7.05" gradientTransform="translate(-4.64 15.61) rotate(-0.59)" xlink:href="#radial-gradient-5"/><radialGradient id="radial-gradient-28" cx="502.22" cy="30.44" r="7.05" gradientTransform="translate(-4.64 15.61) rotate(-0.59)" xlink:href="#radial-gradient-5"/><radialGradient id="radial-gradient-29" cx="490.94" cy="24.8" r="7.05" gradientTransform="translate(-4.64 15.61) rotate(-0.59)" xlink:href="#radial-gradient-5"/><radialGradient id="radial-gradient-30" cx="480.36" cy="22.68" r="7.05" gradientTransform="translate(-4.64 15.61) rotate(-0.59)" xlink:href="#radial-gradient-5"/><radialGradient id="radial-gradient-31" cx="469.08" cy="22.33" r="7.05" gradientTransform="translate(-4.64 15.61) rotate(-0.59)" xlink:href="#radial-gradient-5"/><radialGradient id="radial-gradient-32" cx="459.21" cy="22.33" r="7.05" gradientTransform="translate(-4.64 15.61) rotate(-0.59)" xlink:href="#radial-gradient-5"/><radialGradient id="radial-gradient-33" cx="449.33" cy="22.68" r="7.05" gradientTransform="translate(-4.64 15.61) rotate(-0.59)" xlink:href="#radial-gradient-5"/><radialGradient id="radial-gradient-34" cx="409.85" cy="21.62" r="7.05" gradientTransform="translate(-4.64 15.61) rotate(-0.59)" xlink:href="#radial-gradient-5"/><radialGradient id="radial-gradient-35" cx="398.21" cy="20.21" r="7.05" gradientTransform="translate(-4.64 15.61) rotate(-0.59)" xlink:href="#radial-gradient-5"/><radialGradient id="radial-gradient-36" cx="386.58" cy="21.62" r="7.05" gradientTransform="translate(-4.64 15.61) rotate(-0.59)" xlink:href="#radial-gradient-5"/><radialGradient id="radial-gradient-37" cx="378.47" cy="22.33" r="7.05" gradientTransform="translate(-4.64 15.61) rotate(-0.59)" xlink:href="#radial-gradient-5"/><radialGradient id="radial-gradient-38" cx="366.48" cy="24.79" r="7.05" gradientTransform="translate(-4.64 15.61) rotate(-0.59)" xlink:href="#radial-gradient-5"/><radialGradient id="radial-gradient-39" cx="358.38" cy="30.43" r="7.05" gradientTransform="translate(-4.64 15.61) rotate(-0.59)" xlink:href="#radial-gradient-5"/><radialGradient id="radial-gradient-40" cx="350.97" cy="39.25" r="7.05" gradientTransform="translate(-4.64 15.61) rotate(-0.59)" xlink:href="#radial-gradient-5"/><radialGradient id="radial-gradient-41" cx="347.8" cy="48.06" r="7.05" gradientTransform="translate(-4.64 15.61) rotate(-0.59)" xlink:href="#radial-gradient-5"/><radialGradient id="radial-gradient-42" cx="348.86" cy="58.28" r="7.05" gradientTransform="translate(-4.64 15.61) rotate(-0.59)" xlink:href="#radial-gradient-5"/><radialGradient id="radial-gradient-43" cx="352.38" cy="66.39" r="7.05" gradientTransform="translate(-4.64 15.61) rotate(-0.59)" xlink:href="#radial-gradient-5"/><radialGradient id="radial-gradient-44" cx="358.37" cy="75.56" r="7.05" gradientTransform="translate(-4.64 15.61) rotate(-0.59)" xlink:href="#radial-gradient-5"/><radialGradient id="radial-gradient-45" cx="428.88" cy="53.35" r="7.05" gradientTransform="translate(-4.64 15.61) rotate(-0.59)" xlink:href="#radial-gradient-5"/><radialGradient id="radial-gradient-46" cx="428.53" cy="64.63" r="7.05" gradientTransform="translate(-4.64 15.61) rotate(-0.59)" xlink:href="#radial-gradient-5"/><linearGradient id="linear-gradient-9" x1="528.74" y1="105.9" x2="291.37" y2="109.19" xlink:href="#linear-gradient"/><radialGradient id="radial-gradient-47" cx="345.33" cy="99.89" r="4.94" gradientTransform="translate(-4.64 15.61) rotate(-0.59)" xlink:href="#radial-gradient-5"/><radialGradient id="radial-gradient-48" cx="367.54" cy="94.25" r="4.94" gradientTransform="translate(-4.64 15.61) rotate(-0.59)" xlink:href="#radial-gradient-5"/><radialGradient id="radial-gradient-49" cx="397.86" cy="92.48" r="5.64" gradientTransform="translate(-4.64 15.61) rotate(-0.59)" xlink:href="#radial-gradient-5"/><radialGradient id="radial-gradient-50" cx="429.24" cy="92.49" r="4.94" gradientTransform="translate(-4.64 15.61) rotate(-0.59)" xlink:href="#radial-gradient-5"/><radialGradient id="radial-gradient-51" cx="459.91" cy="92.49" r="5.29" gradientTransform="translate(-4.64 15.61) rotate(-0.59)" xlink:href="#radial-gradient-5"/><radialGradient id="radial-gradient-52" cx="490.58" cy="95.31" r="4.94" gradientTransform="translate(-4.64 15.61) rotate(-0.59)" xlink:href="#radial-gradient-5"/><radialGradient id="radial-gradient-53" cx="511.38" cy="100.24" r="4.94" gradientTransform="translate(-4.64 15.61) rotate(-0.59)" xlink:href="#radial-gradient-5"/><radialGradient id="radial-gradient-54" cx="534.3" cy="108.35" r="4.94" gradientTransform="translate(-4.64 15.61) rotate(-0.59)" xlink:href="#radial-gradient-5"/><radialGradient id="radial-gradient-55" cx="323.82" cy="107.29" r="4.94" gradientTransform="translate(-4.64 15.61) rotate(-0.59)" xlink:href="#radial-gradient-5"/><linearGradient id="linear-gradient-10" x1="284.62" y1="147.68" x2="623.42" y2="142.76" xlink:href="#linear-gradient"/></defs><title>Label Blue</title><g id="Layer_2" data-name="Layer 2"><g id="_1" data-name="1"><path class="cls-1" d="M776.18,221.77C776.18,99.29,617.32,0,421.35,0S66.53,99.29,66.53,221.77c0,4,.18,7.92.51,11.85-.33,3.86-.51,7.76-.51,11.71V985.47c0,67.85,49.9,123.36,110.88,123.36H665.3c61,0,110.88-55.51,110.88-123.36V245.33c0-4-.18-7.85-.51-11.71C776,229.69,776.18,225.74,776.18,221.77Z"/><path class="cls-2" d="M665.29,1092.81H177.41c-52.3,0-94.86-48.15-94.86-107.34V245.33c0-3.42.15-6.9.44-10.34l.12-1.36L83,232.27c-.3-3.52-.45-7.05-.45-10.5,0-53.52,34.23-104.38,96.39-143.24C243.45,38.22,329.54,16,421.35,16S599.26,38.22,663.76,78.53c62.16,38.86,96.4,89.72,96.4,143.24,0,3.45-.15,7-.45,10.5l-.11,1.36.11,1.36c.3,3.44.45,6.92.45,10.34V985.47c0,59.19-42.56,107.34-94.87,107.34Z"/><path class="cls-3" d="M82.55,327l346.2,277.92L82.55,255.77ZM729.8,137l-301,467.91L758.47,201.27C754.77,178.92,745.05,157.26,729.8,137ZM178.94,78.53q-8.22,5.14-15.79,10.57l265.6,515.83L220.8,56.26A355.15,355.15,0,0,0,178.94,78.53ZM456.39,1092.81,428.75,604.93,401.1,1092.81ZM82.55,513.74l346.19,91.19L82.55,470.34ZM760.16,589V551L428.75,604.93Zm0,282L428.75,604.93,760.16,939.17ZM758,1008.06,428.75,604.93l297.63,462.6C742.16,1052.46,753.55,1031.69,758,1008.06Zm-92.75,84.75a84.66,84.66,0,0,0,14.05-1.18L428.75,604.93l184.9,487.88Zm-103.59,0-133-487.88,75.15,487.88ZM582.45,40.88a472.55,472.55,0,0,0-64.31-16.3L428.75,604.92,462,17.5Q441.95,16,421.35,16q-13.05,0-25.94.6l33.34,588.31h0Zm-153.7,564h0L690.21,97.11a292.79,292.79,0,0,0-26.45-18.58c-9.33-5.83-19.13-11.27-29.32-16.33L428.75,604.92h0L121.13,126.81C104.76,145.7,93.38,166,87.42,187.06L428.75,604.93,82.55,378v52.37l346.2,174.55h0L82.55,621.59v39.68l346.19-56.34h0L82.55,696.12v43.39L428.73,604.93,82.55,779.47v52.38L428.74,604.93,82.55,882.84v71.24L428.74,604.93,88.17,1021.87c7.1,22.22,20.5,41.05,37.76,53.71L428.74,604.93h0l-251.2,487.88h66.3l184.9-487.87L295.79,1092.81h57.8l75.16-487.88h0L760.16,822.16V772L428.75,604.93,760.16,733.76V692.22L428.75,604.93l331.41,53.93v-38l-331.41-16h0ZM82.55,548.59v39.67l346.19,16.67ZM339,22.17a486,486,0,0,0-65.1,14.44L428.75,604.92Zm89.77,582.75ZM760.16,476.09,428.75,604.93l331.41-87.3Zm0-205.4L428.75,604.92l331.41-266Zm0,117L428.75,604.92,760.16,437.83Z"/><ellipse class="cls-4" cx="425.7" cy="622.82" rx="316.67" ry="439.87"/><path class="cls-5" d="M425.71,1046.94c-167.51,0-303.78-190.26-303.78-424.12S258.2,198.69,425.71,198.69,729.48,389,729.48,622.82s-136.27,424.12-303.77,424.12Z"/><path class="cls-6" d="M425.71,1040.78c-164.11,0-297.62-187.5-297.62-418s133.51-418,297.62-418,297.6,187.49,297.6,418-133.5,418-297.6,418Z"/><path class="cls-7" d="M425.71,1028.46c-75.28,0-146.41-41.69-200.31-117.38-54.81-77-85-179.34-85-288.26s30.18-211.3,85-288.26c53.9-75.7,125-117.38,200.31-117.38S572.11,258.86,626,334.56c54.8,77,85,179.33,85,288.26s-30.19,211.29-85,288.26c-53.9,75.69-125,117.38-200.3,117.38Z"/><path class="cls-8" d="M484.1,1019.89,447.28,884.76l21.43,139.09Q476.45,1022.17,484.1,1019.89Zm53.81-24.18-90.63-111,76.53,118.94Q530.93,1000,537.91,995.71Zm-364.26-183,273.63,72.08L160.77,773.38Q166.46,793.49,173.65,812.68ZM455.3,1026.27l-8-141.51L439.16,1028C444.57,1027.65,450,1027.06,455.3,1026.27ZM703.24,717,447.29,884.75,694.17,760.28Q699.57,739.06,703.24,717ZM711,622.82c0-1.33,0-2.66,0-4L447.29,884.75,708.65,674.94Q711,649.21,711,622.82ZM563.35,977.94,447.28,884.76,549.69,988Q556.6,983.26,563.35,977.94ZM684.85,792.4,447.28,884.76l225.51-59.4Q679.38,809.25,684.85,792.4ZM511.59,1009.65,447.28,884.76l49.61,130.89Q504.3,1012.94,511.59,1009.65Zm93-702.31c-18.61-21.44-38.82-39.27-60.2-53.28L447.28,884.75,484.61,225.9a204.5,204.5,0,0,0-58.9-8.72c-5.44,0-10.84.24-16.22.67l37.79,666.9h0Zm44.2,567.71q6.92-12.3,13.12-25.23L447.29,884.76ZM185.91,842.22q7.2,15.78,15.46,30.7l245.9,11.84ZM346.88,233a248.59,248.59,0,0,0-66.13,40.69l166.53,611.1ZM225.4,334.56a410.57,410.57,0,0,0-33,55.2l254.86,495-213-562.09C231.25,326.54,228.3,330.49,225.4,334.56ZM447.28,884.75h0L678.66,435.39a447,447,0,0,0-33.85-71.8L447.28,884.75h0L167.59,450.05a517.51,517.51,0,0,0-18,70.3L447.28,884.76,143.86,685.87q2.77,25.35,7.78,49.83L447.28,884.76h0L215.15,895.93q5,7.73,10.25,15.15c2.11,3,4.27,5.87,6.44,8.74l215.44-35.06h0l-201,53q8.4,9.74,17.25,18.48l183.75-71.42-168.9,85.15q8.63,7.47,17.59,14l151.31-99.17L311,994.17q8.76,5.51,17.76,10.14L447.27,884.77,343.81,1011.42c5.84,2.5,11.74,4.7,17.69,6.66l85.78-133.32h0l-70.87,137.63c5.75,1.43,11.54,2.59,17.37,3.52l53.49-141.14-38.94,142.92c5.58.48,11.18.75,16.82.76l22.13-143.69h0l127.55,83.6c4.55-4,9-8.15,13.43-12.53l-141-71.07L599.6,944c4.52-5,8.95-10.2,13.29-15.59L447.28,884.76l176.93,28.79c.6-.83,1.21-1.64,1.8-2.47q6-8.39,11.52-17.16l-190.25-9.16h0Zm249.64-388-249.63,388L708.14,565.4A550.4,550.4,0,0,0,696.92,496.76ZM140.41,622.82c0,5.28.09,10.53.24,15.78L447.28,884.76l-305-307.66Q140.45,599.7,140.41,622.82ZM447.29,884.75h0Z"/><path class="cls-9" d="M3.4,854.17c5.1,23.7,29.8,37.64,63.13,45.42V811.15C11.73,827.69,3.4,854.17,3.4,854.17Z"/><path class="cls-10" d="M811.25,1048.09c-23-5.08-36.49-8.81-45.09-11.54-17.54,42.54-56.23,72.28-100.86,72.28H608.35L604,1129.19s37.2,14.1,143.5-14.11C774,1108,832.51,1079.82,811.25,1048.09Z"/><path class="cls-11" d="M816.56,1069.25s5.32-172.77,37.2-225.66c-5.31-7.05-42.51-74-366.72,0C402,861.22,56.55,952.89,3.4,854.17c0,0-15.95,24.68,21.26,116.35a295.45,295.45,0,0,1,10.62,112.83c0,3.53,31.89,74,329.52,14.1C492.36,1065.72,768.73,988.15,816.56,1069.25Z"/><path class="cls-12" d="M662.43,1002.35c-101,7-318.88,67-356.09,74.05-187.88,33.23-251.13-5.33-269.61-23.4,0,6.58-.16,13.4-.62,20.44,17.66,17.79,80.18,57.63,270.23,24,37.21-7,255.11-67,356.09-74,19.62,0,111.68-18,155,26.33.3-5.66.68-12.35,1.18-19.82C775.81,984,682.23,1002.26,662.43,1002.35ZM455.15,861.22c-228.53,52.89-313.57,45.84-329.51,45.84-89.89,0-116.55-30.51-124.37-46.65A66,66,0,0,0,0,874.85c6,15,30.08,49.53,125.64,49.53,15.94,0,101,7,329.51-45.84,30.11-6.66,301.72-82.42,390.19-16.76a122.91,122.91,0,0,1,5.49-12.84C768.76,775.48,485.91,854.42,455.15,861.22Z"/><path class="cls-13" d="M512.06,166.36c0,2.19-38.23,4.26-85.43,4.61s-85.47-1.12-85.49-3.31,45.71-16,87.84-13.43C474.82,157,512.05,164.17,512.06,166.36Z"/><path class="cls-14" d="M339.49,139.1s2.79-2.85-5.7-5.93L319.45,110s-34.3-43.71,15.71-49.52c12.28-5.76,38.09-32.47,85.87-15C431.21,41.21,478,28,493.74,54c18.36,3,56.17,11.41,46.93,37.95-6.57,12.76-8.59,21.94-8.59,21.94l-13.94,16s-7,6.07-6.95,9.59l-46.13,5.06-63.1,1-49.37-.9Z"/><path class="cls-15" d="M321.22,111.08s6.67-2.89,6.27-7.82c-5.71-7-30.94-25.77,7.35-39.21-1.68,7.78-3.3,22.25,7.07,36.24l14.48,2.32,5.62-2.17,5.3,1s3.78-9.55,6.2-13.81c-.73-2.46-25.28-24.77-5.33-38.37,7-2.54,26.73-7,41.91-4.66-.31,4.23,1.29,22.9-2.51,30.34,0,2.12-1.65,11.3,9.64,12.24l14.84,3,2.79-3.55s14.78-1.92,5.82-16.63l-1-25s31.32-5.61,49.44,8.65c.74,2.82,4.76,16.88-11,29.73-.68,2.48,1.88,11.26,4.39,16.17l11.67,2.7,15.12-3.32s12.09-24.45,6-36.38c8.13,3.09,27.6,9.94,19.62,23.42-6.61,7.83-11.14,12.81-11.14,12.81s-4.52,6.39,5.74,9.81l10.22.25s29.57-39.44-19.61-56.56l-5.65-.3-7.41-.63s-22-18.1-40.37-17.21L440.64,33l-58.18-1.52-22.85,6.93S343.14,47.75,343.54,53c-4.58,0-15.51.16-20.06,3.38-16.47,10-31.5,21.83-14.29,49.86C316.3,112.19,314.54,112.21,321.22,111.08Z"/><path class="cls-16" d="M439.52,26.31a15.16,15.16,0,1,1-15.32-15A15.17,15.17,0,0,1,439.52,26.31Z"/><path class="cls-17" d="M431.59,44.73a7.05,7.05,0,1,1-7.12-7A7,7,0,0,1,431.59,44.73Z"/><path class="cls-18" d="M431.7,55.3a7.05,7.05,0,1,1-7.12-7A7,7,0,0,1,431.7,55.3Z"/><path class="cls-19" d="M513.2,60.46a7.05,7.05,0,1,1-7.13-7A7.06,7.06,0,0,1,513.2,60.46Z"/><path class="cls-20" d="M511.91,72.11a7.05,7.05,0,1,1-7.12-7A7.05,7.05,0,0,1,511.91,72.11Z"/><path class="cls-21" d="M509.18,81.65a7.05,7.05,0,1,1-7.12-7A7,7,0,0,1,509.18,81.65Z"/><path class="cls-22" d="M504,90.17a7.05,7.05,0,1,1-7.12-7A7,7,0,0,1,504,90.17Z"/><path class="cls-23" d="M524.74,51.88a6,6,0,1,1-6-5.93A6,6,0,0,1,524.74,51.88Z"/><path class="cls-24" d="M335.42,52.06a6,6,0,1,1-6.05-5.93A6,6,0,0,1,335.42,52.06Z"/><path class="cls-25" d="M326.31,57.44a6,6,0,1,1-6.05-5.93A6,6,0,0,1,326.31,57.44Z"/><path class="cls-26" d="M317.56,63.88A6,6,0,1,1,311.51,58,6,6,0,0,1,317.56,63.88Z"/><path class="cls-27" d="M310.24,71.36a6,6,0,1,1-6.06-5.93A6,6,0,0,1,310.24,71.36Z"/><path class="cls-28" d="M308.25,83.72a6,6,0,1,1-6.06-5.94A6,6,0,0,1,308.25,83.72Z"/><path class="cls-29" d="M308.71,94.64a6,6,0,1,1-6-5.93A6,6,0,0,1,308.71,94.64Z"/><path class="cls-30" d="M314.09,103.75a6,6,0,1,1-6-5.93A6,6,0,0,1,314.09,103.75Z"/><path class="cls-31" d="M535.7,54.59a6,6,0,1,1-6.05-5.93A6,6,0,0,1,535.7,54.59Z"/><path class="cls-32" d="M544.59,61.55a6,6,0,1,1-6.06-5.93A6,6,0,0,1,544.59,61.55Z"/><path class="cls-33" d="M550.67,70.65a6,6,0,1,1-6-5.93A6,6,0,0,1,550.67,70.65Z"/><path class="cls-34" d="M552.54,80.86a6,6,0,1,1-6-5.93A6,6,0,0,1,552.54,80.86Z"/><path class="cls-35" d="M552.65,91.78a6,6,0,1,1-6-5.93A6,6,0,0,1,552.65,91.78Z"/><path class="cls-36" d="M547.46,101.36a6,6,0,1,1-6.05-5.94A6,6,0,0,1,547.46,101.36Z"/><path class="cls-37" d="M509.9,48.51a7.05,7.05,0,1,1-7.12-7A7,7,0,0,1,509.9,48.51Z"/><path class="cls-38" d="M504.89,40.8a7.05,7.05,0,1,1-7.13-7A7,7,0,0,1,504.89,40.8Z"/><path class="cls-39" d="M493.55,35.28a7.05,7.05,0,1,1-7.12-7A7.05,7.05,0,0,1,493.55,35.28Z"/><path class="cls-40" d="M483,33.27a7.05,7.05,0,1,1-7.12-7A7,7,0,0,1,483,33.27Z"/><path class="cls-41" d="M471.67,33a7.05,7.05,0,1,1-7.13-7A7.06,7.06,0,0,1,471.67,33Z"/><path class="cls-42" d="M461.8,33.14a7.05,7.05,0,1,1-7.13-7A7.05,7.05,0,0,1,461.8,33.14Z"/><path class="cls-43" d="M451.93,33.59a7.05,7.05,0,1,1-7.12-7A7,7,0,0,1,451.93,33.59Z"/><path class="cls-44" d="M412.44,32.94a7.05,7.05,0,1,1-7.13-7A7.05,7.05,0,0,1,412.44,32.94Z"/><path class="cls-45" d="M400.79,31.65a7.05,7.05,0,1,1-7.12-7A7.05,7.05,0,0,1,400.79,31.65Z"/><path class="cls-46" d="M389.17,33.18a7.05,7.05,0,1,1-7.12-7A7.05,7.05,0,0,1,389.17,33.18Z"/><path class="cls-47" d="M381.07,34A7.05,7.05,0,1,1,374,27,7.05,7.05,0,0,1,381.07,34Z"/><path class="cls-48" d="M369.11,36.56a7.05,7.05,0,1,1-7.12-7A7,7,0,0,1,369.11,36.56Z"/><path class="cls-49" d="M361.06,42.28a7.05,7.05,0,1,1-7.12-7A7,7,0,0,1,361.06,42.28Z"/><path class="cls-50" d="M353.75,51.17a7.05,7.05,0,1,1-7.13-7A7.05,7.05,0,0,1,353.75,51.17Z"/><path class="cls-51" d="M350.66,60a7.05,7.05,0,1,1-7.12-7A7.06,7.06,0,0,1,350.66,60Z"/><path class="cls-52" d="M351.83,70.22a7.05,7.05,0,1,1-7.13-7A7.06,7.06,0,0,1,351.83,70.22Z"/><path class="cls-53" d="M355.44,78.3a7.05,7.05,0,1,1-7.13-7A7.06,7.06,0,0,1,355.44,78.3Z"/><path class="cls-54" d="M361.52,87.4a7.05,7.05,0,1,1-7.12-7A7,7,0,0,1,361.52,87.4Z"/><path class="cls-55" d="M431.8,64.47a7.05,7.05,0,1,1-7.12-7A7,7,0,0,1,431.8,64.47Z"/><path class="cls-56" d="M431.56,75.75a7.05,7.05,0,1,1-7.12-7A7,7,0,0,1,431.56,75.75Z"/><path class="cls-57" d="M550.39,112.25S534.17,111,528.3,123.77c-2.09,2.84-13.87,22.7-28.17,3.46-1.74,1.42-14.37,7.9-20.84-4.37-4.21,2.51-14.72,9-21.9-3.66-3.15,2.5-21.36,14.33-31.8-7.07-2.78,3.9-14.55,25.18-32,7-3.48,4.27-10.41,16-22.17,3.76-2.78,4.26-6.57,12.76-20.05,5.14-.32,2.47-6.53,15.58-21.81,4.8-.7-.34-11.43-15-13.56-16.07s-8.84-3.09-13.41-2c-.71-.35-8.54-7,14.39-5.44,1.76-.72,7-4,8.13,2,3.17,0,9.83-4,13.82,6.21-.3,4.94.8,9.86-7.69,6.78,1.79,2.09,10.32,9.76,12.69-.48a58.05,58.05,0,0,0-2.54-6.68l5.26-3.22s8.25,14.37,13.84,9.37c0,0,7-1.48,1.65-10.94-.35-.35-4.26-3.49-5.64-.65l-.63,7.76s-7.74,1.49-7.53-12.26c1.05-.72-1.1-4.22,8.06-4.67l-5-4.53,3.52,0-.76-5.63,7.08,2.4,1.37-3.54,4.69,10.17s11.54-8.93,17.34,6.52c0,2.82.07,6.35-2.74,7.79l-6.77-7.34s-6-2-3.13,4.62c1.08,1.75,2.55,7.73,10.3,7.3,2.46-1.09,8.75-6.09,7.63-12.42l6.33-1.48s3.65,12.66,10.34,11.53c3.88.31,14.81.56,12.94-10.36,0-.35-3.94-5.6-8.09,1.5l-2,6.72s-14.53-7.61.15-19.75c4.22-.74,5.27-1.81,10.59,1-.06-4.93-4.68-8.76-6.81-10.86.34-1.06,2.09-2.49,6.69-.07l3.46-6.73.34-1.41,6.45,10.51s3.15-2.86,7-2.54c-1.05,1.42-5.93,6-5.88,11,2.45-1.79,12.63-6.13,17,8.28-.66,4.24-2,11.31-9.06,10l-.43-7.4s-6.06-7-8.09,1.84c.73,2.82.1,9.52,16.65,7.94,1.75-1.78,6-3.23,6.24-10.29l6-.06s4.41,17.59,14.92,11.13c2.1-1.43,6.3-4.29,5.53-11-.71-.34-3.54-1.37-5.65-.64l-3.79,9.2s-10.65-8,1.24-17.64c4.57-.75,7.72-2.54,10.58,1.3l3.09-8.84,3.2,3.14L495.18,91l.42,6.35,2.82,0-4.18,5s10.92-1.16,6.82,12.27c-.34,1.07-9.42,9.27-12.32,1.54.35-.35,7-3.24,7-3.24l-.37-2.47s-8.14-2.74-9.45,6.8c1.09,3.51,6.79,8.74,14.12,2a65,65,0,0,0,3.82-6l3.52-.75,1.42,1.4-.68,2.47s-6.25,9.59,1.52,10.92c3.53.67,7.06.63,9.48-4.33-2.46.73-10.93.46-5.75-10.52,1-1.77,4.86-6.75,12.3-3.65,1.39-1.42,3.12-5.32,9.15-1.15C539.06,107.08,551.35,102.73,550.39,112.25Z"/><path class="cls-58" d="M346.61,111.88a4.93,4.93,0,1,1-5-4.89A4.91,4.91,0,0,1,346.61,111.88Z"/><path class="cls-59" d="M368.77,106a4.94,4.94,0,1,1-5-4.88A4.94,4.94,0,0,1,368.77,106Z"/><path class="cls-60" d="M399.77,103.93a5.64,5.64,0,1,1-5.7-5.58A5.64,5.64,0,0,1,399.77,103.93Z"/><path class="cls-61" d="M430.44,103.62a4.94,4.94,0,1,1-5-4.89A4.94,4.94,0,0,1,430.44,103.62Z"/><path class="cls-62" d="M461.46,103.3a5.29,5.29,0,1,1-5.34-5.24A5.28,5.28,0,0,1,461.46,103.3Z"/><path class="cls-63" d="M491.81,105.81a4.94,4.94,0,1,1-5-4.89A4.94,4.94,0,0,1,491.81,105.81Z"/><path class="cls-64" d="M512.65,110.53a4.94,4.94,0,1,1-5-4.89A4.92,4.92,0,0,1,512.65,110.53Z"/><path class="cls-65" d="M535.65,118.4a4.94,4.94,0,1,1-5-4.88A4.94,4.94,0,0,1,535.65,118.4Z"/><path class="cls-66" d="M325.19,119.5a4.94,4.94,0,1,1-5-4.88A4.94,4.94,0,0,1,325.19,119.5Z"/><path class="cls-67" d="M341.19,167.64s71.3-26.47,171-1.4c0,0,6.63-6.77-.32-30.67,0,.35-85.6-28-173.08,2.13C339.48,138.39,331.17,152.58,341.19,167.64Z"/></g></g></svg>