<?xml version="1.0" encoding="utf-8"?>
<svg version="1.1" id="SvgjsSvg1000" xmlns:svgjs="http://svgjs.com/svgjs"
	 xmlns="http://www.w3.org/2000/svg" xmlns:xlink="http://www.w3.org/1999/xlink" x="0px" y="0px" viewBox="0 0 140 49"
	 style="enable-background:new 0 0 140 49;" xml:space="preserve">
<style type="text/css">
	.printq{fill:#2140AA;}
</style>
<title>printQ</title>
<path id="p" class="printq" d="M14.5,31.2c-1.8,0-3.2-0.6-4.2-1.7c-1-1.1-1.5-2.6-1.5-4.4s0.5-3.3,1.5-4.4
	c1-1.1,2.4-1.7,4.2-1.7c1.8,0,3.2,0.6,4.2,1.7c1,1.1,1.5,2.6,1.5,4.4s-0.5,3.3-1.5,4.4C17.6,30.6,16.3,31.2,14.5,31.2z M19.7,12.9
	c-1.5-0.6-3.2-0.9-5-0.9c-0.9,0-1.7,0.1-2.5,0.3c-0.8,0.2-1.5,0.5-2.2,0.9c-0.7,0.4-1.2,0.8-1.7,1.2c-0.5,0.4-0.9,0.9-1.2,1.3H7
	v-3.2H0v36h7.6V34.5h0.1c0.9,1.2,2,2,3.4,2.5c1.4,0.5,2.9,0.7,4.5,0.7c1.8,0,3.3-0.4,4.7-1.1c1.4-0.7,2.6-1.7,3.5-2.9
	c1-1.2,1.7-2.6,2.2-4.2c0.5-1.6,0.8-3.2,0.8-4.9c0-1.8-0.3-3.5-0.9-5.1c-0.6-1.5-1.4-2.9-2.5-4C22.5,14.4,21.2,13.6,19.7,12.9z"/>
<path id="r" class="printq" d="M43.9,12.3c-1.7,0-3.1,0.4-4.2,1.1c-1.1,0.8-2.1,1.6-2.9,3.1h-0.1v-3.9H29v24.5h7.6V26.8
	c0-1.2,0.1-2.3,0.2-3.3c0.1-1,0.4-1.9,0.9-2.6c0.5-0.7,1.1-1.3,2-1.7c0.8-0.4,2-0.6,3.5-0.6c0.6,0,1.1,0,1.7,0.1
	c0.5,0.1,1.1,0.2,1.6,0.4v-6.6c-0.4-0.1-0.8-0.2-1.2-0.2C44.8,12.3,44.3,12.3,43.9,12.3"/>
<path id="i" class="printq" d="M48,37.1h7.6V12.6H48V37.1z"/>
<path id="dot" class="printq" d="M52.4,0c-1.2,0-2.3,0.4-3.1,1.3C48.4,2.1,48,3.2,48,4.4s0.4,2.2,1.3,3.1
	c0.9,0.8,1.9,1.3,3.1,1.3s2.3-0.4,3.1-1.3c0.9-0.9,1.3-1.9,1.3-3.1s-0.4-2.3-1.3-3.1C54.7,0.4,53.6,0,52.4,0"/>
<path id="n" class="printq" d="M80.1,15.3c-0.7-1-1.6-1.9-2.8-2.5c-1.2-0.6-2.8-0.9-4.7-0.9c-0.9,0-1.8,0.1-2.6,0.3
	c-0.8,0.2-1.5,0.5-2.1,0.9c-0.6,0.4-1.1,0.8-1.6,1.3c-0.4,0.5-0.8,0.9-1,1.4h-0.1v-3.3H58v24.5h7.6V24.9c0-0.8,0-1.6,0.1-2.3
	c0.1-0.7,0.3-1.4,0.6-2c0.3-0.6,0.8-1.1,1.4-1.4c0.6-0.3,1.4-0.5,2.4-0.5c1,0,1.7,0.2,2.3,0.6s0.9,0.9,1.2,1.6
	c0.3,0.6,0.4,1.3,0.5,2.1c0.1,0.8,0.1,1.5,0.1,2.2v12h7.6V23.6c0-1.7-0.1-3.2-0.4-4.6C81.2,17.6,80.8,16.4,80.1,15.3"/>
<path id="t" class="printq" d="M95.5,5h-7.6v7.3H83v6h4.9V30c0,1.3,0.2,2.5,0.7,3.4c0.5,0.9,1.1,1.7,1.9,2.3
	c0.8,0.6,1.8,1,2.9,1.3c1.1,0.3,2.3,0.4,3.6,0.4c0.9,0,1.8-0.1,2.7-0.2c0.9-0.1,1.8-0.3,2.6-0.6v-6.3c-0.3,0.3-0.8,0.5-1.5,0.6
	S99.5,31,99.1,31c-0.8,0-1.5-0.1-2-0.3c-0.5-0.2-0.9-0.5-1.1-0.9c-0.2-0.4-0.4-0.9-0.5-1.4c-0.1-0.6-0.1-1.2-0.1-1.8v-8.2h6.7v-6
	h-6.7V5z"/>
<path id="Q" class="printq" d="M113.8,28.3c-0.9-0.9-1.5-1.9-2-3.1c-0.4-1.2-0.7-2.5-0.7-4c0-1.4,0.2-2.7,0.7-4
	c0.5-1.2,1.1-2.3,2-3.2c0.8-0.9,1.9-1.6,3-2.1c1.2-0.5,2.5-0.7,4-0.7c1.5,0,2.8,0.3,4,0.7c1.2,0.5,2.2,1.2,3.1,2.1
	c0.9,0.9,1.5,1.9,2,3.2c0.5,1.2,0.7,2.5,0.7,4c0,1.5-0.2,2.8-0.7,4c-0.1,0.4-0.3,0.8-0.5,1.1l-3.6-3.9h-10.3l8,8.5
	c-0.8,0.2-1.7,0.3-2.6,0.3c-1.5,0-2.8-0.2-4-0.7C115.6,29.9,114.6,29.2,113.8,28.3z M136.5,31c-0.7,0-1.3-0.1-1.7-0.3
	c0.6-0.9,1.1-1.8,1.6-2.9c0.8-2,1.3-4.2,1.3-6.7c0-2.5-0.4-4.7-1.3-6.7c-0.8-2-2-3.7-3.5-5.1c-1.5-1.4-3.3-2.5-5.3-3.2
	c-2.1-0.8-4.3-1.1-6.7-1.1c-2.4,0-4.7,0.4-6.7,1.1c-2,0.8-3.8,1.8-5.3,3.2c-1.5,1.4-2.7,3.1-3.5,5.1c-0.8,2-1.3,4.2-1.3,6.7
	c0,2.5,0.4,4.7,1.3,6.7c0.8,2,2,3.7,3.5,5.1c1.5,1.4,3.3,2.5,5.3,3.2c2.1,0.8,4.3,1.1,6.7,1.1c2.4,0,4.7-0.4,6.7-1.1
	c0.3-0.1,0.5-0.2,0.7-0.3c0.7,0.5,1.5,0.8,2.4,1c1.1,0.3,2.3,0.4,3.6,0.4c0.9,0,1.8-0.1,2.7-0.2c0.9-0.1,1.8-0.3,2.6-0.6v-6.3
	c-0.3,0.3-0.8,0.5-1.5,0.6S136.9,31,136.5,31z"/>
</svg>
